HIERARCHY
ROOT Hips
{
	OFFSET -0.001795 -0.223333 0.028219
	CHANNELS 6 Xposition Yposition Zposition Zrotation Yrotation Xrotation 
	JOINT LeftUpLeg
	{
		OFFSET 0.069520 -0.091406 -0.006815
		CHANNELS 3 Zrotation Yrotation Xrotation
		JOINT LeftLeg
		{
			OFFSET 0.034277 -0.375199 -0.004496
			CHANNELS 3 Zrotation Yrotation Xrotation
			JOINT LeftFoot
			{
				OFFSET -0.013596 -0.397961 -0.043693
				CHANNELS 3 Zrotation Yrotation Xrotation
				JOINT LeftToe
				{
					OFFSET 0.026358 -0.055791 0.119288
					CHANNELS 3 Zrotation Yrotation Xrotation
					End Site
					{
						OFFSET 0.000000 0.000000 0.000000
					}
				}
			}
		}
	}
	JOINT RightUpLeg
	{
		OFFSET -0.067670 -0.090522 -0.004320
		CHANNELS 3 Zrotation Yrotation Xrotation
		JOINT RightLeg
		{
			OFFSET -0.038290 -0.382569 -0.008850
			CHANNELS 3 Zrotation Yrotation Xrotation
			JOINT RightFoot
			{
				OFFSET 0.015774 -0.398415 -0.042312
				CHANNELS 3 Zrotation Yrotation Xrotation
				JOINT RightToe
				{
					OFFSET -0.025372 -0.048144 0.123348
					CHANNELS 3 Zrotation Yrotation Xrotation
					End Site
					{
						OFFSET 0.000000 0.000000 0.000000
					}
				}
			}
		}
	}
	JOINT Spine
	{
		OFFSET -0.002533 0.108963 -0.026696
		CHANNELS 3 Zrotation Yrotation Xrotation
		JOINT Spine1
		{
			OFFSET 0.005487 0.135180 0.001092
			CHANNELS 3 Zrotation Yrotation Xrotation
			JOINT Spine2
			{
				OFFSET 0.001457 0.052922 0.025425
				CHANNELS 3 Zrotation Yrotation Xrotation
				JOINT Neck
				{
					OFFSET -0.002778 0.213870 -0.042857
					CHANNELS 3 Zrotation Yrotation Xrotation
					JOINT Head
					{
						OFFSET 0.005152 0.064970 0.051349
						CHANNELS 3 Zrotation Yrotation Xrotation
						End Site
						{
							OFFSET 0.000000 0.000000 0.000000
						}
					}
				}
				JOINT LeftShoulder
				{
					OFFSET 0.078845 0.121749 -0.034090
					CHANNELS 3 Zrotation Yrotation Xrotation
					JOINT LeftArm
					{
						OFFSET 0.090977 0.030469 -0.008868
						CHANNELS 3 Zrotation Yrotation Xrotation
						JOINT LeftForeArm
						{
							OFFSET 0.259612 -0.012772 -0.027456
							CHANNELS 3 Zrotation Yrotation Xrotation
							JOINT LeftHand
							{
								OFFSET 0.249234 0.008986 -0.001171
								CHANNELS 3 Zrotation Yrotation Xrotation
								End Site
								{
									OFFSET 0.000000 0.000000 0.000000
								}
							}
						}
					}
				}
				JOINT RightShoulder
				{
					OFFSET -0.081759 0.118833 -0.038615
					CHANNELS 3 Zrotation Yrotation Xrotation
					JOINT RightArm
					{
						OFFSET -0.096012 0.032551 -0.009143
						CHANNELS 3 Zrotation Yrotation Xrotation
						JOINT RightForeArm
						{
							OFFSET -0.253742 -0.013329 -0.021401
							CHANNELS 3 Zrotation Yrotation Xrotation
							JOINT RightHand
							{
								OFFSET -0.255298 0.007772 -0.005559
								CHANNELS 3 Zrotation Yrotation Xrotation
								End Site
								{
									OFFSET 0.000000 0.000000 0.000000
								}
							}
						}
					}
				}
			}
		}
	}
}
MOTION
Frames: 7
Frame Time: 0.050000
-0.072268 0.955786 -0.012992 -4.117132 24.439301 17.076319 13.326238 -3.108636 -38.616190 -2.874200 -1.448472 25.675094 -4.641434 -2.139470 10.404335 0.000000 0.000000 0.000000 3.546520 1.837774 -20.882979 -1.035187 0.233298 3.881351 -12.272590 -25.396842 13.129428 0.000000 0.000000 0.000000 -7.628756 -0.027137 18.577532 -11.758078 4.618587 -1.039582 -9.438537 18.613925 2.895249 15.529429 -5.862421 -14.792049 0.000000 0.000000 0.000000 11.167761 -36.033761 10.413328 23.097535 -38.212564 -14.087959 44.516152 1.481579 -1.759358 0.000000 0.000000 0.000000 -32.188696 27.603198 1.535533 -29.467108 59.794170 -8.519912 -43.484571 4.093017 0.790640 0.000000 0.000000 0.000000 
-0.073637 0.952034 -0.014639 -3.858747 24.520575 16.460168 13.189688 -3.107735 -38.308152 -2.926565 -1.480430 25.951279 -4.401797 -2.271518 9.520619 0.000000 0.000000 0.000000 2.805641 1.737917 -21.097595 -0.345209 0.119693 5.357097 -12.613717 -26.393613 12.096061 0.000000 0.000000 0.000000 -7.842827 -0.061216 19.389154 -11.624854 4.592366 -0.709081 -8.933662 19.492172 3.110768 15.778491 -5.889848 -15.028685 0.000000 0.000000 0.000000 10.455280 -36.668765 10.481867 22.418444 -39.486581 -14.473973 45.938411 2.004327 -1.725833 0.000000 0.000000 0.000000 -32.318808 28.499350 1.651952 -32.292084 61.933907 -10.282752 -41.491916 -0.451501 1.984107 0.000000 0.000000 0.000000 
-0.074951 0.947277 -0.015874 -3.525201 24.416364 16.155618 13.180434 -3.119918 -38.497573 -3.150903 -1.483134 26.619505 -4.447308 -2.303229 9.640132 0.000000 0.000000 0.000000 2.146439 1.658007 -21.864845 0.351396 -0.030248 7.227268 -13.218422 -28.001081 10.942853 0.000000 0.000000 0.000000 -7.939953 -0.093681 20.063595 -11.955999 4.735138 -0.505481 -8.600442 19.885514 3.214321 15.682247 -5.860837 -14.906268 0.000000 0.000000 0.000000 10.028622 -37.204455 10.540518 22.315090 -40.420181 -14.802253 46.393414 2.427519 -1.567076 0.000000 0.000000 0.000000 -32.658746 29.368445 1.737048 -35.362015 63.208533 -12.241373 -39.254428 -4.425836 2.895506 0.000000 0.000000 0.000000 
-0.076104 0.943005 -0.016747 -3.077408 24.851338 15.463507 12.958455 -3.177290 -38.099788 -3.757638 -1.376007 26.862502 -4.242019 -2.431237 8.829274 0.000000 0.000000 0.000000 1.681379 1.562844 -22.062424 0.412438 -0.082902 8.871674 -13.452246 -28.800095 9.998478 0.000000 0.000000 0.000000 -7.852805 -0.227772 21.146829 -11.933528 4.728603 -0.506145 -8.410720 20.230253 3.259271 15.778464 -6.405727 -13.713524 0.000000 0.000000 0.000000 8.850091 -38.347310 10.685858 21.012855 -40.809149 -14.350335 47.815966 0.788568 -2.342912 0.000000 0.000000 0.000000 -31.702244 30.467324 2.264386 -36.240854 63.997883 -13.153619 -37.885924 -6.458766 3.249808 0.000000 0.000000 0.000000 
-0.077030 0.941811 -0.017314 -2.855176 24.690103 15.361500 12.871977 -3.135679 -37.758777 -3.754560 -1.314869 26.319512 -4.456866 -2.667037 9.081416 0.000000 0.000000 0.000000 1.286507 1.499475 -22.056833 0.641332 -0.144685 9.296104 -13.518855 -28.798962 10.270795 0.000000 0.000000 0.000000 -7.463913 -0.311688 21.289466 -12.209214 4.836215 -0.436317 -8.121697 20.660193 3.341369 15.843500 -6.595538 -13.338853 0.000000 0.000000 0.000000 8.497918 -38.647878 10.725238 19.828426 -41.818639 -14.258885 48.526433 -0.409357 -2.972185 0.000000 0.000000 0.000000 -30.957426 31.578986 2.789349 -37.112722 64.526204 -14.028119 -36.093240 -8.176555 3.424220 0.000000 0.000000 0.000000 
-0.077400 0.943084 -0.017733 -2.577846 24.765823 15.230796 12.820106 -3.091859 -37.222837 -3.851821 -1.216395 25.510136 -4.889148 -3.276648 9.369719 0.000000 0.000000 0.000000 0.903496 1.423900 -21.393363 0.630455 -0.135912 8.900811 -13.574578 -28.741872 10.684356 0.000000 0.000000 0.000000 -7.262800 -0.369392 21.403306 -12.031561 4.765950 -0.418804 -7.703841 20.536812 3.300065 15.664586 -6.983458 -12.181875 0.000000 0.000000 0.000000 7.275054 -38.368095 10.623989 17.517951 -41.977526 -13.151015 49.710072 -3.538229 -4.511128 0.000000 0.000000 0.000000 -29.697055 32.252947 3.399728 -35.918394 65.595702 -14.090989 -36.690915 -8.122496 3.408962 0.000000 0.000000 0.000000 
-0.077071 0.945249 -0.017797 -2.059925 24.687809 15.287076 12.086885 -3.102304 -36.148541 -3.784058 -1.096933 23.954320 -5.159642 -3.710772 9.404220 0.000000 0.000000 0.000000 0.363036 1.325838 -20.695712 0.570656 -0.102412 7.955913 -13.671375 -28.401040 11.925651 0.000000 0.000000 0.000000 -6.907154 -0.388220 20.821336 -12.100912 4.792425 0.187331 -7.200694 20.602040 3.308487 15.520867 -7.183856 -11.506910 0.000000 0.000000 0.000000 5.766678 -37.895404 10.441809 14.282276 -42.499971 -11.800805 51.104658 -7.825303 -6.774324 0.000000 0.000000 0.000000 -27.638495 32.739566 4.247043 -31.131273 67.051843 -12.198539 -38.624668 -6.438488 3.102647 0.000000 0.000000 0.000000 
